
<svg width="89px" height="84px" viewBox="1382 192 89 84" version="1.1" xmlns="http://www.w3.org/2000/svg" xmlns:xlink="http://www.w3.org/1999/xlink">
    <!-- Generator: Sketch 41.2 (35397) - http://www.bohemiancoding.com/sketch -->
    <desc>Created with Sketch.</desc>
    <defs></defs>
    <g id="Дешево" stroke="none" stroke-width="1" fill="none" fill-rule="evenodd" transform="translate(1382.000000, 192.000000)">
        <path d="M22.9275494,81.4208344 C21.9118772,81.1146695 21.3326477,80.6581558 20.9824159,80.0458261 C20.62949,79.4321296 20.6052432,78.8580704 20.6362252,78.1883348 C20.7870943,74.87246 20.9581691,71.6631961 21.1292438,68.4429978 C21.5037225,61.372503 21.8822422,54.2555367 22.0155997,47.1180683 C21.4417584,50.4817814 20.86657,53.8468613 20.2913816,57.2119412 C18.2048083,69.428466 16.1236232,81.6067202 15.9565896,82.4363723 C15.8016794,83.2168193 15.0338635,83.7321057 14.2633536,83.5694557 C9.90027365,82.6413934 5.53584665,81.7133312 1.1727667,80.7866357 C0.387439254,80.6417541 -0.140602531,79.847639 0.0331663218,79.0480567 C1.99311733,70.1132365 3.39000338,60.8831859 4.78554238,51.6490349 C6.64311795,39.369637 8.50204055,27.0806714 11.7726667,15.0924034 C12.2616442,13.299152 13.0995064,10.9960815 14.1407725,9.06478261 C14.9786347,7.50662214 15.9741012,6.1562164 17.0773314,5.40037189 C18.1495795,4.42037096 19.8522448,3.50597679 21.9226536,2.66949064 C24.3311707,1.69632375 27.2380946,0.811999346 30.2096767,0.0438535699 C30.3699751,0.00284934694 30.5302735,-0.0080851125 30.6851837,0.0055829618 C35.2557086,0.468930681 39.9205267,0.612445461 44.5126044,0.612445461 C49.1652991,0.612445461 53.7546827,0.303546982 58.3871717,0.0055829618 C58.5393878,-0.00125107535 58.6956451,0.0233514584 58.8384319,0.0575216442 C61.7925024,0.821566998 64.6819147,1.70042418 67.0769614,2.66949064 C69.1473701,3.50597679 70.8500354,4.42037096 71.9236306,5.4017387 C73.0268608,6.1562164 74.0209802,7.50662214 74.8588425,9.06478261 C75.9001085,10.9960815 76.7379707,13.299152 77.2269482,15.0924034 C80.4975744,27.0806714 82.356497,39.369637 84.2127255,51.6490349 C85.6096115,60.8831859 87.0064976,70.1132365 88.9664486,79.0480567 C89.1402175,79.847639 88.6202579,80.6253525 87.8403187,80.7839021 C83.4718505,81.7119644 79.1047295,82.6400266 74.7362613,83.5694557 C73.9765277,83.7293721 73.1750357,83.2140857 73.0416783,82.4281715 C72.8638683,81.537013 70.7880714,69.392929 68.7082333,57.2119412 C68.1330449,53.8468613 67.5578566,50.4817814 66.9840152,47.1180683 C67.1173727,54.2555367 67.4958925,61.372503 67.8703711,68.4429978 C68.0414458,71.6631961 68.2125206,74.87246 68.3633897,78.1883348 C68.3943717,78.8580704 68.3687779,79.4321296 68.017199,80.0458261 C67.6669672,80.6581558 67.0863907,81.1146695 66.0720655,81.4208344 C60.3727166,83.1402781 52.4224548,84 44.4991339,84 C36.5771601,84 28.6268984,83.1402781 22.9275494,81.4208344 Z M64.3424593,4.72653583 C64.0851736,6.13024706 63.6622014,7.59273101 63.1004834,9.0811843 C62.2828269,11.2516745 61.1607381,13.4946055 59.8231221,15.7060999 C58.3332899,18.1718205 56.5498018,20.652576 54.6208328,22.9706814 C52.7053343,25.2710183 50.6335785,27.4223732 48.5470053,29.2470611 C47.5097803,30.1546213 46.4712084,31.0621814 45.4339834,31.9697415 C44.8897771,32.4481241 44.0909792,32.4344561 43.5642845,31.9697415 C42.5270595,31.0621814 41.4898346,30.1546213 40.4526097,29.2470611 C38.3660364,27.4223732 36.2942806,25.2710183 34.3787821,22.9706814 C32.4498131,20.652576 30.666325,18.1718205 29.1764929,15.7060999 C27.8402239,13.4946055 26.7208292,11.2475741 25.9018256,9.07708388 C25.3401077,7.58726378 24.9171354,6.12477983 24.6598498,4.72516902 C24.0698439,4.93292375 23.5054319,5.1447789 22.974696,5.35936767 C21.6047509,5.91292468 20.45168,6.48014976 19.6286353,7.05010846 C19.7525635,7.42734731 19.8778387,7.80595297 20.0017669,8.18455863 C22.1974508,14.8573125 24.6625438,22.3433168 24.6800554,31.398416 C24.6840966,31.4503547 24.6867907,31.5036602 24.6854436,31.5569657 C25.2862258,44.0017473 24.6302148,56.3658874 23.9809389,68.590613 C23.9149337,69.8480759 23.8489284,71.1055387 23.7829232,72.3630015 C29.2936858,73.9361969 36.8842865,74.7221112 44.4991339,74.7221112 C52.1153285,74.7221112 59.7059291,73.9361969 65.2166917,72.3630015 C65.1506865,71.1055387 65.0846813,69.8480759 65.018676,68.590613 C64.3694002,56.3658874 63.7133891,44.0017473 64.3141713,31.5569657 C64.3128243,31.5036602 64.3155184,31.4503547 64.3195595,31.398416 C64.3370711,22.3433168 66.8021641,14.8573125 68.9978481,8.18455863 C69.1231233,7.80595297 69.2470515,7.42734731 69.3709796,7.05010846 C68.5479349,6.48014976 67.3948641,5.91292468 66.0249189,5.35936767 C65.4941831,5.1447789 64.9311181,4.93429056 64.3424593,4.72653583 Z M27.4105164,3.83264377 C27.6422082,5.2732588 28.0624864,6.68380407 28.5757106,8.04514427 C29.3340972,10.0584516 30.3740162,12.1441998 31.614645,14.1971445 C33.0250015,16.5302848 34.7195846,18.8880276 36.5596485,21.0967884 C38.3889361,23.293248 40.3542753,25.3366251 42.3196145,27.0560688 C43.047019,27.6916343 43.7730765,28.3271997 44.4991339,28.9627652 C45.2265384,28.3271997 45.9525959,27.6916343 46.6786533,27.0560688 C48.6453396,25.3366251 50.6106788,23.293248 52.4399664,21.0981552 C54.2800304,18.8880276 55.9746134,16.5302848 57.3849699,14.1971445 C58.6269458,12.1428329 59.6682118,10.0611852 60.4265984,8.04787788 C60.9398227,6.68653768 61.3627949,5.27462561 61.5904456,3.83401058 C60.9910104,3.65359199 60.3781047,3.47727384 59.7544227,3.3050561 C59.3435739,6.23275762 57.860477,9.71401614 55.7590862,13.1898074 C53.0380545,17.6907043 49.25151,22.2558411 45.4366775,25.5935849 C44.9086357,26.0596662 44.1098378,26.0733343 43.5656315,25.5963185 C39.750799,22.2585747 35.9629074,17.6907043 33.2405287,13.1898074 C31.139138,9.71401614 29.656041,6.23275762 29.2451922,3.3050561 C28.6228572,3.47727384 28.0099516,3.65222519 27.4105164,3.83264377 Z M65.3689078,75.3248732 C59.6547414,76.859798 52.0654878,77.6279438 44.4991339,77.6279438 C36.9341271,77.6279438 29.3435265,76.859798 23.6307071,75.3248732 C23.5808664,76.3322103 23.5323728,77.3286129 23.4879203,78.3127143 C23.479838,78.4944997 23.4744498,78.5833422 23.7330825,78.6393813 C29.1562872,80.2754498 36.8155872,81.0941674 44.4991339,81.0941674 C52.1840278,81.0941674 59.8433277,80.2754498 65.2665324,78.6393813 C65.4537717,78.5765081 65.5238181,78.5177354 65.5116946,78.3127143 C65.4672421,77.3286129 65.4187485,76.3322103 65.3689078,75.3248732 Z M32.0847638,3.03579504 C32.4511602,5.4933148 33.7860821,8.55086302 35.6786809,11.680852 C38.0306221,15.570786 41.2204255,19.5085582 44.4991339,22.562006 C47.7791894,19.5085582 50.9689928,15.570786 53.3209341,11.680852 C55.2135328,8.55086302 56.5484548,5.4946816 56.9148511,3.03579504 C52.7807689,3.35836159 48.6466866,3.51827806 44.5126044,3.51827806 C40.374481,3.51827806 36.2323165,3.35699478 32.0847638,3.03579504 Z M85.1583513,74.7508141 C81.7664911,75.4711216 78.3746309,76.192796 74.9827706,76.9131035 C75.2346681,78.378321 75.4421131,79.5756443 75.5902881,80.4271654 C79.0171715,79.6972902 82.445402,78.9687818 85.8722854,78.2416403 C85.6257761,77.0784872 85.3886961,75.915334 85.1583513,74.7508141 Z M74.4910991,74.0564759 C77.8654477,73.338902 81.2397964,72.6226949 84.612798,71.905121 C83.3842926,65.3089084 82.3834379,58.696294 81.3825832,52.0795793 C79.535784,39.8616876 77.6862907,27.6355952 74.4749345,15.8632828 C74.0317566,14.2408824 73.2801053,12.1688023 72.3533381,10.4493585 C72.1256874,10.0256482 71.8913015,9.62790727 71.6515274,9.26980373 C69.5393603,15.6828642 67.1968484,22.8763717 67.1726016,31.3683463 C67.4622163,32.9251399 69.4976019,44.8423339 71.5275993,56.7239909 C72.6052356,63.0372744 73.6828719,69.3409903 74.4910991,74.0564759 Z M4.38681695,71.905121 C7.75981856,72.6226949 11.1341672,73.338902 14.5085159,74.0564759 C15.3167431,69.3409903 16.3943794,63.0386412 17.4720157,56.7239909 C19.500666,44.8450675 21.5360515,32.9306072 21.8270133,31.3697131 C21.8027665,22.8763717 19.4602546,15.684231 17.3480875,9.26980373 C17.1083134,9.62790727 16.8739275,10.0256482 16.6462769,10.4493585 C15.7195096,12.1688023 14.9678583,14.2408824 14.5246804,15.8632828 C11.3133242,27.6355952 9.46383095,39.8616876 7.61703175,52.0795793 C6.61617704,58.696294 5.61532233,65.3089084 4.38681695,71.905121 Z M14.0168443,76.9131035 C10.6249841,76.192796 7.23312382,75.4711216 3.84126358,74.7508141 C3.61091882,75.915334 3.37383884,77.0771204 3.12732953,78.2416403 C6.55421295,78.9687818 9.98244341,79.6972902 13.4093268,80.4271654 C13.5575018,79.5756443 13.7649468,78.378321 14.0168443,76.9131035 L14.0168443,76.9131035 Z" id="Fill-22" fill="#393939"></path>
        <path d="M65.440198,21.4960021 C65.0270777,21.1374532 64.3498665,21.1439817 63.9443999,21.4960021 L57.9276032,26.7197015 C57.5146169,27.0782504 57.1715722,27.8109817 57.1610972,28.3720495 L56.8360152,45.7843789 C56.8256719,46.3383966 57.2614334,46.7875167 57.8140575,46.7875167 L70.6610086,46.7875167 C71.2115097,46.7875167 71.6702815,46.3454467 71.6857684,45.7978484 L72.178978,28.35858 C72.1944361,27.8120013 71.8645452,27.0717219 71.458947,26.7197015 L65.440198,21.4960021 Z M63.1042419,26.7843572 C63.1042419,25.9070318 63.8093381,25.195819 64.6927801,25.195819 C65.5701055,25.195819 66.2813182,25.9009152 66.2813182,26.7843572 C66.2813182,27.6616826 65.576222,28.3728954 64.6927801,28.3728954 C63.8154546,28.3728954 63.1042419,27.6677991 63.1042419,26.7843572 Z" id="Combined-Shape" fill="#0C8EF1" transform="translate(64.507667, 34.008525) rotate(-45.000000) translate(-64.507667, -34.008525) "></path>
    </g>
</svg>