
<svg width="96px" height="96px" viewBox="0 0 96 96" version="1.1" xmlns="http://www.w3.org/2000/svg" xmlns:xlink="http://www.w3.org/1999/xlink">
    <!-- Generator: Sketch 41.2 (35397) - http://www.bohemiancoding.com/sketch -->
    <desc>Created with Sketch.</desc>
    <defs>
        <circle id="path-1" cx="48" cy="47.63782" r="41"></circle>
        <mask id="mask-2" maskContentUnits="userSpaceOnUse" maskUnits="objectBoundingBox" x="0" y="0" width="82" height="82" fill="white">
            <use xlink:href="#path-1"></use>
        </mask>
        <circle id="path-3" cx="48" cy="47.63782" r="47.478365"></circle>
        <mask id="mask-4" maskContentUnits="userSpaceOnUse" maskUnits="objectBoundingBox" x="0" y="0" width="94.95673" height="94.95673" fill="white">
            <use xlink:href="#path-3"></use>
        </mask>
    </defs>
    <g id="Group-7" stroke="none" stroke-width="1" fill="none" fill-rule="evenodd">
        <path d="M46.278023,7.58464452 L46.278023,52 L85.3956323,33.6954899 C85.3956323,33.6954899 79.7023306,21.5667904 69.6435749,14.8526118 C59.5848191,8.13843317 46.278023,7.58464452 46.278023,7.58464452 Z" id="Path-6" fill="#0C8EF1"></path>
        <use id="Oval-3" stroke="#393939" mask="url(#mask-2)" stroke-width="6" xlink:href="#path-1"></use>
        <use id="Oval-3-Copy" stroke="#393939" mask="url(#mask-4)" stroke-width="6" xlink:href="#path-3"></use>
        <path d="M48.3888889,47.6110148 L48.3888889,26.6378329 C48.3888889,25.5273182 47.4976039,24.63782 46.3981481,24.63782 C45.2910272,24.63782 44.4074074,25.5332563 44.4074074,26.6378329 L44.4074074,47.7281905 C43.2630518,48.4320147 42.5,49.6958072 42.5,51.13782 C42.5,53.346959 44.290861,55.13782 46.5,55.13782 C48.4152359,55.13782 50.0160855,53.7917727 50.4081398,51.9940873 L68.2482256,43.6251557 C69.2467487,43.1805846 69.6971889,42.0044028 69.25,41 C68.7996933,39.9885947 67.6292649,39.5424607 66.6288112,39.9878914 L49.1835976,48.1715848 C48.9434117,47.9541511 48.6766971,47.7654826 48.3888889,47.6110148 Z" id="Combined-Shape" fill="#393939"></path>
    </g>
</svg>