
<svg width="64px" height="58px" viewBox="570 1152 64 58" version="1.1" xmlns="http://www.w3.org/2000/svg" xmlns:xlink="http://www.w3.org/1999/xlink">
    <!-- Generator: Sketch 41.2 (35397) - http://www.bohemiancoding.com/sketch -->
    <desc>Created with Sketch.</desc>
    <defs></defs>
    <g id="Group-4" stroke="none" stroke-width="1" fill="none" fill-rule="evenodd" transform="translate(570.000000, 1152.000000)">
        <path d="M49.9529375,5.00791213 L40.0979987,5.00791213 L40.0979987,1.6715591 C40.0979987,0.748114308 39.3527454,0 38.4328978,0 C37.5141731,0 36.768639,0.748114308 36.768639,1.6715591 L36.768639,5.00791213 L26.9593646,5.00791213 L26.9593646,1.6715591 C26.9593646,0.748114308 26.2141112,0 25.2951058,0 C24.3755389,0 23.6300049,0.748114308 23.6300049,1.6715591 L23.6300049,5.03219831 L13.7589769,5.00791213 L13.7589769,1.6715591 C13.7589769,0.748114308 13.0134428,0 12.093876,0 C11.1751512,0 10.4296172,0.748114308 10.4296172,1.6715591 L10.4296172,5.00791213 L4.03278904,5.00791213 C1.97835993,5.00791213 0,7.10652216 0,9.16848756 L0.000842094183,52.0280521 C0.000842094183,55.2801225 2.70592931,58 5.94434284,58 L58.0559379,58 C61.2943514,58 63.9988772,55.2801225 63.9988772,52.0280521 C63.9991579,37.8415047 64,23.4505929 64,9.26348173 C64,7.187986 62.0516748,5.00791213 59.9455972,5.00791213 L53.0631614,5.00791213 L53.0522142,1.6715591 C53.0522142,0.748114308 52.4147489,0 51.4957435,0 C50.5761766,0 49.9541497,0.679898911 49.9541497,1.6033437 C49.9541497,3.1225253 49.9536447,4.17822368 49.9529375,5.00791213 Z M49.9490926,8.41078927 L40.0979987,8.41078927 L40.0979987,10.142953 C40.7096398,10.6339911 41.1009329,11.0725991 41.1009329,12.2359253 C41.1009329,13.3992516 39.9062819,14.9154938 38.4328978,14.9154938 C36.9597944,14.9154938 35.7651434,13.3992516 35.7651434,12.2359253 C35.7651434,11.0725991 36.1572786,10.6339911 36.768639,10.142953 L36.768639,8.41078927 L26.9593646,8.41078927 L26.9593646,10.142953 C27.5710056,10.6339911 27.9628601,11.0725991 27.9628601,12.2359253 C27.9628601,13.3992516 26.7684899,14.9154938 25.2951058,14.9154938 C23.8220023,14.9154938 22.6273514,13.3992516 22.6273514,12.2359253 C22.6273514,11.0725991 23.0186445,10.6339911 23.6300049,10.142953 L23.6300049,8.43505411 L13.7589769,8.41078927 L13.7589769,10.142953 C14.3703372,10.6339911 14.761911,11.0725991 14.761911,12.2359253 C14.761911,13.3992516 13.5672601,14.9154938 12.093876,14.9154938 C10.6210532,14.9154938 9.42668298,13.3992516 9.42668298,12.2359253 C9.42668298,11.0725991 9.81825678,10.6339911 10.4296172,10.142953 L10.4296172,8.39049378 L4.03278904,8.39049378 C3.6763025,8.39049378 3.37960465,8.68816096 3.37960465,9.04615086 L3.37820116,52.0469382 C3.37820116,53.4701594 4.52597554,54.6227741 5.94265865,54.6227741 L58.0876567,54.6227741 C59.5046206,54.6227741 60.6523949,53.4701594 60.6523949,52.0469382 C60.6521142,37.7992224 60.6344302,23.3217729 60.629097,9.06644635 C60.629097,8.70704705 60.3360482,8.41078927 59.9759126,8.41078927 L53.160283,8.41078927 L53.160283,10.142953 C53.7716434,10.6339911 54.1632172,11.0725991 54.1632172,12.2359253 C54.1632172,13.3992516 52.9691276,14.9154938 51.4957435,14.9154938 C50.0226401,14.9154938 48.8279891,13.3992516 48.8279891,12.2359253 C48.8279891,11.0731629 49.3371754,10.6339911 49.9485358,10.142953 C49.9485358,9.44864674 49.9487491,8.89299041 49.9490926,8.41078927 Z" id="Fill-47" fill="#393939"></path>
        <path d="M51.7312866,44.313235 C54.7562378,44.313235 54.7562378,49 51.7312866,49 C48.7074523,49 48.7074523,44.313235 51.7312866,44.313235 Z M41.8651547,44.313235 C44.8901058,44.313235 44.8901058,49 41.8651547,49 C38.8413204,49 38.8413204,44.313235 41.8651547,44.313235 Z M31.9995812,44.313235 C35.0245323,44.313235 35.0245323,49 31.9995812,49 C28.9757469,49 28.9757469,44.313235 31.9995812,44.313235 Z M22.1337285,44.313235 C25.1586796,44.313235 25.1586796,49 22.1337285,49 C19.1096149,49 19.1096149,44.313235 22.1337285,44.313235 Z M12.2678757,44.313235 C15.2928269,44.313235 15.2928269,49 12.2678757,49 C9.24404142,49 9.24404142,44.313235 12.2678757,44.313235 Z M51.7312866,34.6566175 C54.7562378,34.6566175 54.7562378,39.3433825 51.7312866,39.3433825 C48.7071731,39.3433825 48.7071731,34.6566175 51.7312866,34.6566175 Z M41.864352,34.692823 C44.8895823,34.692823 44.8893031,39.3795881 41.864352,39.3795881 C38.8402385,39.3795881 38.8399593,34.692823 41.864352,34.692823 Z M41.864352,25 C44.8895823,25 44.8893031,29.686765 41.864352,29.686765 C38.8402385,29.686765 38.8399593,25 41.864352,25 Z M31.9995812,34.6566175 C35.0245323,34.6566175 35.0245323,39.3433825 31.9995812,39.3433825 C28.9754677,39.3433825 28.9754677,34.6566175 31.9995812,34.6566175 Z M22.1337285,34.6566175 C25.1589588,34.6566175 25.1586796,39.3433825 22.1337285,39.3433825 C19.1096149,39.3433825 19.1093357,34.6566175 22.1337285,34.6566175 Z M12.2678757,34.6566175 C15.2928269,34.6566175 15.2925477,39.3433825 12.2678757,39.3433825 C9.24432063,39.3433825 9.24404142,34.6566175 12.2678757,34.6566175 Z M31.9995812,25 C35.0245323,25 35.0245323,29.686765 31.9995812,29.686765 C28.9751885,29.686765 28.9757469,25 31.9995812,25 Z M51.7301698,25 C54.7545625,25 54.7551209,29.686765 51.7301698,29.686765 C48.7054979,29.686765 48.7063355,25 51.7301698,25 L51.7301698,25 Z" id="Fill-48" fill="#2B64CC"></path>
    </g>
</svg>