
<svg width="40px" height="43px" viewBox="0 0 40 43" version="1.1" xmlns="http://www.w3.org/2000/svg" xmlns:xlink="http://www.w3.org/1999/xlink">
    <!-- Generator: Sketch 41.2 (35397) - http://www.bohemiancoding.com/sketch -->
    <desc>Created with Sketch.</desc>
    <defs></defs>
    <path d="M17.6983959,0 C15.7430805,0 13.8494538,0.263714764 12.0507572,0.757043634 C-1.12584526,4.48939222 -2.75412903,22.5365092 6.38462095,17.9886846 C15.4725818,13.4661415 8.43581619,2.57224784 19.423871,2.57224784 C23.9706102,2.57224784 26.6012905,4.18583305 28.0722319,5.32250655 L26.9867998,8.12653936 C17.82711,4.65261406 29.9128533,19.7592052 12.7257603,21.1697241 C12.4803169,21.1999353 12.5049201,21.4365143 12.6771419,21.4732381 C29.9356473,22.8592896 17.8184718,37.9975844 26.9867998,34.5203575 L28.0722319,37.3243903 C26.6012905,38.4610638 23.9706102,40.074649 19.423871,40.074649 C8.43581619,40.074649 16.3946563,26.3447928 6.38466618,24.6583028 C-3.62957521,22.9710891 0.0665018538,35.4570854 7.42821865,39.9680958 C8.14713648,40.3645046 8.89124539,40.7208429 9.657877,41.0335378 L9.65792223,41.0335378 C12.1389033,42.0454771 14.8535237,42.6032083 17.6983959,42.6032083 C29.4633035,42.6032083 39,33.0665117 39,21.3016041 C39,9.53669651 29.4633035,0 17.6983959,0" id="Fill-1" stroke="none" fill="#FFFFFF" fill-rule="evenodd"></path>
</svg>