<?xml version="1.0" encoding="UTF-8"?>
<svg width="107px" height="85px" version="1.1" xmlns="http://www.w3.org/2000/svg" xmlns:xlink="http://www.w3.org/1999/xlink">
    <!-- Generator: Sketch 41.2 (35397) - http://www.bohemiancoding.com/sketch -->
    <title>Group 8</title>
    <desc>Created with Sketch.</desc>
    <defs>
        <path d="M0,78.4997559 C0,76.0144745 2.02109659,73.9997559 4.50035572,73.9997559 L59.4996443,73.9997559 C61.9851221,73.9997559 64,76.0195315 64,78.4997559 L64,82.9997559 L0,82.9997559 L0,78.4997559 Z" id="super-path-1"></path>
        <mask id="super-mask-2" maskContentUnits="userSpaceOnUse" maskUnits="objectBoundingBox" x="0" y="0" width="64" height="9" fill="white">
            <use xlink:href="#super-path-1"></use>
        </mask>
    </defs>
    <g id="Landing" stroke="none" stroke-width="1" fill="none" fill-rule="evenodd">
        <g id="Artboard" transform="translate(-1.000000, 0.000000)" stroke="#393939">
            <g id="Group-8" transform="translate(1.000000, 2.000000)">
                <g id="Надежно">
                    <use id="Rectangle-6" mask="url(#super-mask-2)" stroke-width="6" xlink:href="#super-path-1"></use>
                    <path d="M100.407823,41.3592938 L52.490566,29 L50,38.6226415 L97.3415956,52.736098 C100.470041,53.6959316 103.788332,51.9555392 104.753507,48.8459957 C105.718683,45.7348657 103.968604,42.4365286 100.840158,41.473522 C100.701364,41.4322729 100.548213,41.3910239 100.407823,41.3592938 Z" id="Fill-41" stroke-width="3" transform="translate(77.509434, 41.000000) rotate(-1.000000) translate(-77.509434, -41.000000) "></path>
                    <path d="M32.8179348,10.7494507 L33.4867979,8.29433623 L30.5947248,7.53238804 C28.5167694,6.98539313 27.2831501,4.88479284 27.8377455,2.84011536 C28.3958961,0.795437883 30.5342882,-0.415640317 32.610466,0.131354599 L58.1111916,6.84908129 C60.1909245,7.39607621 61.4227664,9.49667649 60.8663934,11.541354 C60.3082428,13.5860315 58.1734058,14.7988572 56.0936729,14.2501147 L53.2015998,13.4881665 L52.5279085,15.961003 L55.4199816,16.7229512 C56.9042355,17.1126632 57.7859,18.6138409 57.3877289,20.0748242 C56.9895578,21.5340598 55.4661979,22.4008633 53.9783889,22.0094036 L47.5205515,45.7066913 C49.0048053,46.0998986 49.8864699,47.5975811 49.4865213,49.0603119 C49.0919053,50.5178 47.5649902,51.3846034 46.0789588,50.9931438 L43.1886633,50.2329432 L42.514972,52.7057796 L45.4052675,53.4659802 C47.4850005,54.0129752 48.7168423,56.1170706 48.1604693,58.1600005 C47.6040963,60.2029304 45.4674818,61.4157562 43.3859713,60.8687613 L17.8905783,54.1527822 C15.8090678,53.6040397 14.577226,51.5016918 15.133599,49.4605095 C15.6917496,47.4140844 17.8265866,46.2012586 19.9080971,46.7500011 L22.8001701,47.5102017 L22.8074783,47.4833954 L42.5,52.75 L22.8074783,47.4833954 L23.4687496,45.0578628 L42.625,50.125 L23.4687496,45.0578628 L23.4738614,45.0391129 L20.5817883,44.2771647 C19.0957569,43.8857051 18.2140924,42.3845273 18.6122634,40.9252917 C19.0104345,39.4660561 20.535572,38.5992526 22.0216034,38.9907122 L28.4794409,15.961003 L28.4794409,15.2934245 C26.995187,14.9019649 26.1135225,13.4007872 26.5116936,11.9398039 C26.9098647,10.4805683 28.4367797,9.61376486 29.9210336,10.0052245 L32.8131067,10.7671727 L32.8179348,10.7494507 L53.5,16.25 L32.8179348,10.7494507 Z M52.875,21.75 L29.25,15.5 L52.875,21.75 Z M53.5,13.5 L32,7.875 L53.5,13.5 Z M23.25,39.25 L46.75,45.5 L23.25,39.25 Z" id="Combined-Shape" stroke-width="3"></path>
                </g>
            </g>
        </g>
    </g>
</svg>